<svg width="32" height="32" viewBox="0 0 32 32" fill="none" xmlns="http://www.w3.org/2000/svg">
<g clip-path="url(#clip0_13072_2405)">
<rect width="32" height="32" rx="3" fill="white"/>
<g clip-path="url(#clip1_13072_2405)">
<path d="M2 15.886C2 12.2032 3.46298 8.67123 6.06711 6.06711C8.67123 3.46298 12.2032 2 15.886 2C19.5688 2 23.1007 3.46298 25.7048 6.06711C28.309 8.67123 29.7719 12.2032 29.7719 15.886C29.7719 19.5688 28.309 23.1007 25.7048 25.7048C23.1007 28.309 19.5688 29.7719 15.886 29.7719C12.2032 29.7719 8.67123 28.309 6.06711 25.7048C3.46298 23.1007 2 19.5688 2 15.886ZM15.0181 3.8694C13.8551 4.22349 12.7009 5.29271 11.7427 7.08921C11.494 7.55555 11.2654 8.06007 11.0571 8.60278C12.2808 8.87529 13.6121 9.04887 15.0181 9.10094V3.8694ZM9.37519 8.14281C9.62282 7.47512 9.90112 6.85141 10.2101 6.27167C10.5122 5.70533 10.8587 5.16382 11.2463 4.65222C9.76841 5.26419 8.42588 6.16196 7.29576 7.29403C7.92526 7.61456 8.6184 7.89633 9.37519 8.14281ZM8.09073 15.0181C8.15322 13.1608 8.41705 11.3956 8.84752 9.79697C7.90751 9.49769 6.99797 9.11005 6.13108 8.63923C4.74829 10.4952 3.92772 12.7093 3.76699 15.0181H8.09073ZM10.5208 10.2604C10.1109 11.8151 9.87803 13.4111 9.82648 15.0181H15.0181V10.8367C13.4386 10.7846 11.9233 10.585 10.5208 10.2604ZM16.7538 10.8349V15.0181H21.9437C21.8927 13.4112 21.6604 11.8152 21.2512 10.2604C19.8487 10.585 18.3334 10.7811 16.7538 10.8349ZM9.82822 16.7538C9.88897 18.467 10.1337 20.0761 10.5208 21.5115C11.998 21.1762 13.504 20.9838 15.0181 20.937V16.7538H9.82822ZM16.7538 16.7538V20.9353C18.3334 20.9873 19.8487 21.1869 21.2512 21.5115C21.6382 20.0761 21.883 18.467 21.9455 16.7538H16.7538ZM11.0571 23.1692C11.2654 23.7119 11.494 24.2164 11.7427 24.6827C12.7009 26.4792 13.8569 27.5467 15.0181 27.9025V22.6727C13.6121 22.7248 12.2808 22.8967 11.0571 23.1692ZM11.2481 27.1197C10.8598 26.6082 10.5127 26.0667 10.2101 25.5003C9.89107 24.8949 9.61217 24.2693 9.37519 23.6274C8.6612 23.857 7.966 24.1414 7.29576 24.4779C8.42588 25.61 9.77014 26.5078 11.2481 27.1197ZM8.84752 21.975C8.39747 20.269 8.14299 18.5174 8.089 16.7538H3.76699C3.92772 19.0627 4.74829 21.2768 6.13108 23.1327C6.94688 22.6849 7.85814 22.2961 8.84752 21.975ZM20.5256 27.1197C22.0028 26.5081 23.3447 25.6109 24.4744 24.4797C23.8048 24.1432 23.1101 23.8588 22.3968 23.6291C22.1597 24.2704 21.8808 24.8955 21.5619 25.5003C21.2598 26.0666 20.9133 26.6081 20.5256 27.1197ZM16.7538 22.671V27.9025C17.9168 27.5485 19.0711 26.4792 20.0292 24.6827C20.2791 24.2164 20.5077 23.7119 20.7148 23.1692C19.4124 22.8833 18.0865 22.7154 16.7538 22.671ZM22.9244 21.975C23.9138 22.2961 24.8251 22.6849 25.6409 23.1327C27.0237 21.2768 27.8442 19.0627 28.005 16.7538H23.6829C23.6289 18.5174 23.3745 20.269 22.9244 21.975ZM28.005 15.0181C27.8442 12.7093 27.0237 10.4952 25.6409 8.63923C24.8251 9.08705 23.9138 9.47586 22.9244 9.79697C23.3549 11.3939 23.6187 13.1608 23.6829 15.0181H28.005ZM21.5619 6.27167C21.8697 6.85257 22.1485 7.47628 22.3985 8.14281C23.1113 7.91304 23.8053 7.62869 24.4744 7.29229C23.3445 6.16166 22.0026 5.26509 20.5256 4.65396C20.904 5.14517 21.2512 5.6902 21.5619 6.27167ZM20.7148 8.60278C20.5167 8.08502 20.2877 7.57959 20.0292 7.08921C19.0711 5.29271 17.9168 4.22523 16.7538 3.8694V9.0992C18.1598 9.04713 19.4911 8.87529 20.7148 8.60278Z" fill="black" fill-opacity="0.85"/>
</g>
<circle cx="24.1952" cy="24.1957" r="5.78582" transform="rotate(-0.186293 24.1952 24.1957)" fill="white"/>
<g clip-path="url(#clip2_13072_2405)">
<path d="M27.088 20.82C27.2159 20.82 27.3385 20.8708 27.4289 20.9613C27.5194 21.0517 27.5702 21.1743 27.5702 21.3022V27.088C27.5702 27.2159 27.5194 27.3385 27.4289 27.4289C27.3385 27.5194 27.2159 27.5702 27.088 27.5702H21.3022C21.1743 27.5702 21.0517 27.5194 20.9613 27.4289C20.8708 27.3385 20.82 27.2159 20.82 27.088V21.3022C20.82 21.1743 20.8708 21.0517 20.9613 20.9613C21.0517 20.8708 21.1743 20.82 21.3022 20.82H27.088ZM21.3022 20.3379C21.0464 20.3379 20.8012 20.4395 20.6203 20.6203C20.4395 20.8012 20.3379 21.0464 20.3379 21.3022V27.088C20.3379 27.3438 20.4395 27.589 20.6203 27.7699C20.8012 27.9507 21.0464 28.0523 21.3022 28.0523H27.088C27.3438 28.0523 27.589 27.9507 27.7699 27.7699C27.9507 27.589 28.0523 27.3438 28.0523 27.088V21.3022C28.0523 21.0464 27.9507 20.8012 27.7699 20.6203C27.589 20.4395 27.3438 20.3379 27.088 20.3379H21.3022Z" fill="black" fill-opacity="0.85"/>
<path d="M27.0879 20.2998C27.3537 20.2998 27.6088 20.4049 27.7969 20.5928C27.9848 20.7807 28.0907 21.0359 28.0908 21.3018V27.0879C28.0908 27.3539 27.985 27.6088 27.7969 27.7969C27.6088 27.985 27.3539 28.0908 27.0879 28.0908H21.3018C21.0359 28.0907 20.7807 27.9848 20.5928 27.7969C20.4049 27.6088 20.2998 27.3537 20.2998 27.0879V21.3018C20.2999 21.0359 20.4048 20.7807 20.5928 20.5928C20.7807 20.4048 21.0359 20.2999 21.3018 20.2998H27.0879ZM21.3018 20.8584C21.1843 20.8585 21.0714 20.9052 20.9883 20.9883C20.9052 21.0714 20.8585 21.1843 20.8584 21.3018V27.0879C20.8584 27.2054 20.9053 27.3182 20.9883 27.4014C21.0714 27.4845 21.1843 27.5311 21.3018 27.5312H27.0879C27.2055 27.5312 27.3182 27.4846 27.4014 27.4014C27.4846 27.3182 27.5312 27.2055 27.5312 27.0879V21.3018C27.5311 21.1843 27.4845 21.0714 27.4014 20.9883C27.3182 20.9053 27.2054 20.8584 27.0879 20.8584H21.3018Z" stroke="black" stroke-opacity="0.85" stroke-width="0.0771443"/>
<path d="M25.6266 22.7347C25.6941 22.6678 25.7852 22.6301 25.8802 22.6299C25.9752 22.6296 26.0665 22.6668 26.1343 22.7333C26.2022 22.7998 26.2411 22.8903 26.2427 22.9853C26.2444 23.0803 26.2085 23.1721 26.143 23.2409L24.2182 25.6469C24.1852 25.6825 24.1452 25.7111 24.1008 25.7309C24.0565 25.7508 24.0085 25.7615 23.9599 25.7624C23.9113 25.7633 23.863 25.7544 23.8179 25.7362C23.7728 25.718 23.7319 25.6909 23.6975 25.6565L22.4222 24.3807C22.3867 24.3476 22.3582 24.3077 22.3384 24.2634C22.3187 24.219 22.308 24.1711 22.3072 24.1226C22.3063 24.074 22.3153 24.0258 22.3334 23.9808C22.3516 23.9357 22.3787 23.8948 22.413 23.8605C22.4474 23.8261 22.4883 23.7991 22.5333 23.7809C22.5783 23.7627 22.6266 23.7538 22.6751 23.7546C22.7237 23.7555 22.7716 23.7661 22.8159 23.7859C22.8603 23.8056 22.9002 23.8341 22.9333 23.8697L23.9429 24.8788L25.6174 22.7453L25.6266 22.7347Z" fill="black" fill-opacity="0.85"/>
<path d="M25.8804 22.5918C25.9854 22.5916 26.0866 22.6325 26.1616 22.7061C26.2364 22.7796 26.2799 22.8795 26.2817 22.9844C26.2835 23.0894 26.2438 23.1915 26.1714 23.2676L24.2485 25.6709L24.2466 25.6729C24.21 25.7123 24.1658 25.7446 24.1167 25.7666C24.0676 25.7885 24.0142 25.7998 23.9604 25.8008C23.9067 25.8018 23.8531 25.7916 23.8032 25.7715C23.7785 25.7615 23.755 25.749 23.7329 25.7344L23.6704 25.6836L22.395 24.4082V24.4072C22.3564 24.3709 22.3248 24.3277 22.3032 24.2793C22.2814 24.2302 22.27 24.1768 22.269 24.123C22.2681 24.0694 22.2773 24.0156 22.2974 23.9658C22.3175 23.9161 22.3483 23.8709 22.3862 23.833C22.4242 23.7952 22.4694 23.7652 22.519 23.7451C22.5688 23.725 22.6226 23.7149 22.6763 23.7158C22.7298 23.7168 22.7826 23.7292 22.8315 23.751C22.8803 23.7727 22.924 23.8039 22.9604 23.8428L23.939 24.8203L25.5874 22.7217L25.5884 22.7197L25.5972 22.709L25.5991 22.707L25.6597 22.6582C25.7245 22.6151 25.8014 22.592 25.8804 22.5918Z" stroke="black" stroke-opacity="0.85" stroke-width="0.0771443"/>
</g>
</g>
<defs>
<clipPath id="clip0_13072_2405">
<rect width="32" height="32" fill="white"/>
</clipPath>
<clipPath id="clip1_13072_2405">
<rect width="27.7719" height="27.7719" fill="white" transform="translate(2 2)"/>
</clipPath>
<clipPath id="clip2_13072_2405">
<rect width="7.86872" height="7.86872" fill="white" transform="translate(20.2612 20.2612)"/>
</clipPath>
</defs>
</svg>
